<svg width="19" height="21" viewBox="0 0 19 21" fill="none" xmlns="http://www.w3.org/2000/svg">
<path d="M13.0886 3.85702V13.4996H5.85631V3.85702H13.0886ZM15.8007 0H3.14422C1.64692 0 0.432129 0.863812 0.432129 1.92851V18.6423C0.432129 19.707 1.64692 20.5708 3.14422 20.5708H15.8007C17.298 20.5708 18.5127 19.707 18.5127 18.6423V1.92851C18.5127 0.863812 17.298 0 15.8007 0ZM3.14422 19.2851C2.647 19.2851 2.24019 18.9958 2.24019 18.6423V1.92851C2.24019 1.57495 2.647 1.28567 3.14422 1.28567H15.8007C16.2979 1.28567 16.7047 1.57495 16.7047 1.92851V18.6423C16.7047 18.9958 16.2979 19.2851 15.8007 19.2851H3.14422ZM14.2186 2.57135H4.72627C4.35336 2.57135 4.04825 2.7883 4.04825 3.05347V14.3031C4.04825 14.5683 4.35336 14.7852 4.72627 14.7852H14.2186C14.5915 14.7852 14.8966 14.5683 14.8966 14.3031V3.05347C14.8966 2.7883 14.5915 2.57135 14.2186 2.57135ZM11.5065 16.7138H7.43837C7.06545 16.7138 6.76034 16.9307 6.76034 17.1959V17.5173C6.76034 17.7825 7.06545 17.9994 7.43837 17.9994H11.5065C11.8794 17.9994 12.1845 17.7825 12.1845 17.5173V17.1959C12.1845 16.9307 11.8794 16.7138 11.5065 16.7138Z" fill="#FCFCFC"/>
</svg>
