<svg width="59" height="53" viewBox="0 0 59 53" fill="none" xmlns="http://www.w3.org/2000/svg">
<path opacity="0.25" d="M4.00879 14.7266C4.29004 12.7578 4.78223 10.9063 5.48535 9.17188C6.18848 7.39063 7.03223 5.84375 8.0166 4.53125C9.00098 3.17188 10.0557 2.11719 11.1807 1.36719C12.3525 0.570313 13.5244 0.171875 14.6963 0.171875C16.8994 0.171875 19.126 0.523438 21.376 1.22656C23.626 1.88281 25.4072 3.03125 26.7197 4.67188C27.0947 5.1875 27.4463 5.82031 27.7744 6.57031C28.1494 7.27344 28.4307 8.16406 28.6182 9.24219C28.8525 10.2734 28.9697 11.5156 28.9697 12.9688C29.0166 14.4219 28.8994 16.1328 28.6182 18.1016C28.1963 20.9141 27.5869 23.6562 26.79 26.3281C25.9932 28.9531 24.751 31.625 23.0635 34.3438C21.4229 37.0625 19.1963 39.8984 16.3838 42.8516C13.6182 45.7578 10.0557 48.8984 5.69629 52.2734L0.985352 45.5234C3.65723 43.5078 5.93066 41.6328 7.80566 39.8984C9.68066 38.1172 11.2041 36.4531 12.376 34.9062C13.5947 33.3125 14.5088 31.8594 15.1182 30.5469C15.7275 29.1875 16.1025 27.9219 16.2432 26.75C16.4307 25.625 16.126 24.7812 15.3291 24.2188C14.5322 23.6094 13.4775 23.1172 12.165 22.7422C9.49316 22.0391 7.40723 20.9844 5.90723 19.5781C4.40723 18.125 3.77441 16.5078 4.00879 14.7266ZM33.2588 14.7266C33.54 12.7578 34.0322 10.9063 34.7354 9.17188C35.4385 7.39063 36.2822 5.84375 37.2666 4.53125C38.251 3.17188 39.3057 2.11719 40.4307 1.36719C41.6025 0.570313 42.7744 0.171875 43.9463 0.171875C46.1494 0.171875 48.376 0.523438 50.626 1.22656C52.876 1.88281 54.6572 3.03125 55.9697 4.67188C56.3447 5.1875 56.6963 5.82031 57.0244 6.57031C57.3994 7.27344 57.6807 8.16406 57.8682 9.24219C58.1025 10.2734 58.2197 11.5156 58.2197 12.9688C58.2666 14.4219 58.1494 16.1328 57.8682 18.1016C57.4463 20.9141 56.8369 23.6562 56.04 26.3281C55.2432 28.9531 54.001 31.625 52.3135 34.3438C50.6729 37.0625 48.4463 39.8984 45.6338 42.8516C42.8682 45.7578 39.3057 48.8984 34.9463 52.2734L30.165 45.5234C32.8369 43.5078 35.1104 41.6328 36.9854 39.8984C38.8604 38.1172 40.4072 36.4531 41.626 34.9062C42.8447 33.3125 43.7588 31.8594 44.3682 30.5469C44.9775 29.1875 45.3525 27.9219 45.4932 26.75C45.6807 25.625 45.376 24.7812 44.5791 24.2188C43.7822 23.6094 42.7275 23.1172 41.415 22.7422C38.7432 22.0391 36.6572 20.9844 35.1572 19.5781C33.6572 18.125 33.0244 16.5078 33.2588 14.7266Z" fill="#F4F4ED"/>
</svg>
