<svg width="58" height="53" viewBox="0 0 58 53" fill="none" xmlns="http://www.w3.org/2000/svg">
<path opacity="0.25" d="M25.6514 37.7188C25.3701 39.6875 24.8779 41.5625 24.1748 43.3438C23.4717 45.0781 22.6279 46.625 21.6436 47.9844C20.6592 49.2969 19.5811 50.3516 18.4092 51.1484C17.2842 51.8984 16.1357 52.2734 14.9639 52.2734C13.8857 52.2734 12.7607 52.2031 11.5889 52.0625C10.4639 51.875 9.3623 51.6172 8.28418 51.2891C7.25293 50.9141 6.26855 50.4453 5.33105 49.8828C4.39355 49.3203 3.62012 48.6172 3.01074 47.7734C2.63574 47.2578 2.26074 46.6484 1.88574 45.9453C1.55762 45.1953 1.27637 44.3047 1.04199 43.2734C0.854492 42.1953 0.737305 40.9297 0.69043 39.4766C0.69043 38.0234 0.831055 36.3125 1.1123 34.3438C1.53418 31.5312 2.12012 28.8125 2.87012 26.1875C3.66699 23.5156 4.88574 20.8203 6.52637 18.1016C8.21387 15.3828 10.4404 12.5703 13.2061 9.66406C16.0186 6.71094 19.6045 3.54688 23.9639 0.171875L28.7451 6.92188C26.0732 8.9375 23.7998 10.8359 21.9248 12.6172C20.0498 14.3516 18.5029 16.0156 17.2842 17.6094C16.0654 19.1562 15.1514 20.6094 14.542 21.9688C13.9326 23.2812 13.5576 24.5234 13.417 25.6953C13.2295 26.8203 13.5342 27.6875 14.3311 28.2969C15.1279 28.8594 16.1826 29.3281 17.4951 29.7031C20.167 30.4062 22.2529 31.4844 23.7529 32.9375C25.2529 34.3438 25.8857 35.9375 25.6514 37.7188ZM54.9014 37.7188C54.6201 39.6875 54.1279 41.5625 53.4248 43.3438C52.7217 45.0781 51.8779 46.625 50.8936 47.9844C49.9092 49.2969 48.8311 50.3516 47.6592 51.1484C46.5342 51.8984 45.3857 52.2734 44.2139 52.2734C42.0107 52.2734 39.7842 51.9453 37.5342 51.2891C35.2842 50.5859 33.5029 49.4141 32.1904 47.7734C31.8154 47.2578 31.4404 46.6484 31.0654 45.9453C30.7373 45.1953 30.4561 44.3047 30.2217 43.2734C30.0342 42.1953 29.917 40.9297 29.8701 39.4766C29.8701 38.0234 30.0107 36.3125 30.292 34.3438C30.7139 31.5312 31.3232 28.8125 32.1201 26.1875C32.917 23.5156 34.1357 20.8203 35.7764 18.1016C37.4639 15.3828 39.6904 12.5703 42.4561 9.66406C45.2686 6.71094 48.8545 3.54688 53.2139 0.171875L57.9951 6.92188C55.3232 8.9375 53.0498 10.8359 51.1748 12.6172C49.2998 14.3516 47.7529 16.0156 46.5342 17.6094C45.3154 19.1562 44.4014 20.6094 43.792 21.9688C43.1826 23.2812 42.8076 24.5234 42.667 25.6953C42.4795 26.8203 42.7842 27.6875 43.5811 28.2969C44.3779 28.8594 45.4326 29.3281 46.7451 29.7031C49.417 30.4062 51.5029 31.4844 53.0029 32.9375C54.5029 34.3438 55.1357 35.9375 54.9014 37.7188Z" fill="#F4F4ED"/>
</svg>
