<svg width="47" height="22" viewBox="0 0 47 22" fill="none" xmlns="http://www.w3.org/2000/svg">
<mask id="path-1-inside-1_80_16" fill="white">
<path fill-rule="evenodd" clip-rule="evenodd" d="M11.3116 0.481792C11.4762 0.481792 11.6399 0.485656 11.8026 0.493301C11.8058 0.493455 11.8086 0.490835 11.8086 0.487549V0.487549C11.8086 0.48437 11.8112 0.481792 11.8144 0.481792L36.1612 0.481792H36.6516C36.6549 0.481792 36.6576 0.484489 36.6576 0.487815V0.487815C36.6576 0.491031 36.6602 0.49368 36.6634 0.493834C42.1942 0.75964 46.5978 5.39265 46.5978 11.069C46.5978 16.7454 42.1942 21.3784 36.6634 21.6442C36.6602 21.6444 36.6576 21.647 36.6576 21.6502V21.6502C36.6576 21.6536 36.6549 21.6563 36.6516 21.6563H36.1612L11.8144 21.6562C11.8112 21.6562 11.8086 21.6537 11.8086 21.6505V21.6505C11.8086 21.6472 11.8058 21.6446 11.8026 21.6447C11.6399 21.6524 11.4762 21.6562 11.3116 21.6562C5.54762 21.6562 0.875 16.9162 0.875 11.069C0.875 5.22186 5.54762 0.481792 11.3116 0.481792Z"/>
</mask>
<path d="M36.6634 21.6442L36.7114 22.6431L36.6634 21.6442ZM36.6634 0.493834L36.6154 1.49268L36.6634 0.493834ZM11.8026 0.493301L11.7556 1.4922L11.8026 0.493301ZM11.8495 -0.505598C11.6712 -0.513976 11.4918 -0.518208 11.3116 -0.518208V1.48179C11.4605 1.48179 11.6086 1.48529 11.7556 1.4922L11.8495 -0.505598ZM36.1612 -0.518208L11.8144 -0.518208V1.48179L36.1612 1.48179V-0.518208ZM36.6516 -0.518208H36.1612V1.48179H36.6516V-0.518208ZM36.6154 1.49268C41.6032 1.73239 45.5978 5.91624 45.5978 11.069H47.5978C47.5978 4.86905 42.7851 -0.213113 36.7114 -0.505013L36.6154 1.49268ZM45.5978 11.069C45.5978 16.2218 41.6032 20.4057 36.6154 20.6454L36.7114 22.6431C42.7851 22.3512 47.5978 17.269 47.5978 11.069H45.5978ZM36.1612 22.6563H36.6516V20.6563H36.1612V22.6563ZM11.8144 22.6562L36.1612 22.6563V20.6563L11.8144 20.6562V22.6562ZM11.3116 22.6562C11.4918 22.6562 11.6712 22.652 11.8495 22.6436L11.7556 20.6458C11.6086 20.6528 11.4605 20.6562 11.3116 20.6562V22.6562ZM-0.125 11.069C-0.125 17.4549 4.98188 22.6562 11.3116 22.6562V20.6562C6.11337 20.6562 1.875 16.3775 1.875 11.069H-0.125ZM11.3116 -0.518208C4.98188 -0.518208 -0.125 4.68313 -0.125 11.069H1.875C1.875 5.76058 6.11337 1.48179 11.3116 1.48179V-0.518208ZM11.8144 20.6562C12.3635 20.6562 12.8086 21.1014 12.8086 21.6505H10.8086C10.8086 22.206 11.2589 22.6562 11.8144 22.6562V20.6562ZM35.6576 21.6502C35.6576 21.1013 36.1026 20.6563 36.6516 20.6563V22.6563C37.2072 22.6563 37.6576 22.2058 37.6576 21.6502H35.6576ZM36.6516 1.48179C36.1026 1.48179 35.6576 1.03677 35.6576 0.487815H37.6576C37.6576 -0.0677959 37.2072 -0.518208 36.6516 -0.518208V1.48179ZM36.6154 20.6454C36.0856 20.6708 35.6576 21.107 35.6576 21.6502H37.6576C37.6576 22.187 37.2348 22.6179 36.7114 22.6431L36.6154 20.6454ZM12.8086 0.487549C12.8086 1.03673 12.3634 1.48179 11.8144 1.48179V-0.518208C11.259 -0.518208 10.8086 -0.0679929 10.8086 0.487549H12.8086ZM35.6576 0.487815C35.6576 1.03112 36.0857 1.46722 36.6154 1.49268L36.7114 -0.505013C37.2347 -0.479863 37.6576 -0.0490595 37.6576 0.487815H35.6576ZM12.8086 21.6505C12.8086 21.0762 12.3287 20.6189 11.7556 20.6458L11.8495 22.6436C11.283 22.6703 10.8086 22.2182 10.8086 21.6505H12.8086ZM11.7556 1.4922C12.3287 1.51912 12.8086 1.0618 12.8086 0.487549H10.8086C10.8086 -0.0801276 11.283 -0.532215 11.8495 -0.505598L11.7556 1.4922Z" fill="white" fill-opacity="0.5" mask="url(#path-1-inside-1_80_16)"/>
<path d="M37.8585 10.9707C38.0537 10.7755 38.0537 10.4589 37.8585 10.2636L34.6765 7.08165C34.4812 6.88639 34.1647 6.88639 33.9694 7.08165C33.7741 7.27692 33.7741 7.5935 33.9694 7.78876L36.7978 10.6172L33.9694 13.4456C33.7741 13.6409 33.7741 13.9575 33.9694 14.1527C34.1647 14.348 34.4812 14.348 34.6765 14.1527L37.8585 10.9707ZM10.668 11.1172H37.5049V10.1172H10.668V11.1172Z" fill="#FCFCFC"/>
</svg>
